<?xml version="1.0" encoding="utf-8"?>
<!-- Generator: Adobe Illustrator 16.0.0, SVG Export Plug-In . SVG Version: 6.00 Build 0)  -->
<!DOCTYPE svg PUBLIC "-//W3C//DTD SVG 1.1//EN" "http://www.w3.org/Graphics/SVG/1.1/DTD/svg11.dtd">
<svg version="1.1" id="Layer_1" xmlns="http://www.w3.org/2000/svg" xmlns:xlink="http://www.w3.org/1999/xlink" x="0px" y="0px"
	 width="2000px" height="1000px" viewBox="0 0 2000 1000" enable-background="new 0 0 2000 1000" xml:space="preserve">
<path fill="#FFFFFF" d="M1024.577,895.205c-3.152-0.313-6.302-0.684-9.458-0.932c-75.704-5.951-144.143-31.277-204.792-77.111
	c-37.011-27.97-67.626-61.859-91.992-101.328c-17.458-28.277-0.737-65.219,31.976-71.033c18.764-3.334,37.934,5.148,48.076,21.438
	c11.844,19.021,25.624,36.507,41.624,52.176c37.604,36.831,82.101,61.373,133.14,74.102c28.564,7.124,57.586,9.833,86.963,8.464
	c41.921-1.952,81.81-11.989,119.344-30.881c46.857-23.58,84.352-57.576,112.575-101.804c9.309-14.588,22.786-22.174,39.987-22.463
	c23.653-0.397,43.76,17.437,46.823,40.942c1.448,11.114-0.714,21.479-6.638,30.963c-14.15,22.654-30.592,43.521-49.234,62.662
	c-29.604,30.393-63.406,55.039-101.318,74.047c-29.165,14.621-59.665,25.568-91.647,32.025c-14.762,2.979-29.741,4.915-44.655,7.105
	c-4.965,0.729-10.03,0.764-15.047,1.15c-1.01,0.077-2.006,0.313-3.008,0.476C1053.055,895.205,1038.816,895.205,1024.577,895.205z"
	/>
<path fill="#FFFFFF" d="M847.952,156.066c30.228,55.704,60.452,111.409,90.684,167.11c29.243,53.879,58.494,107.753,87.739,161.63
	c13.632,25.115,27.258,50.233,40.885,75.353c0.295,0.546,0.563,1.106,0.994,1.961c-1.09,0.048-1.922,0.116-2.753,0.116
	c-30.315,0.005-60.633-0.014-90.949,0.045c-1.922,0.004-2.918-0.572-3.866-2.304c-12.612-23.041-25.33-46.021-38.011-69.023
	c-12.833-23.276-25.661-46.555-38.479-69.838c-15.131-27.481-30.25-54.97-45.379-82.452c-0.262-0.474-0.592-0.91-1.045-1.597
	c-4.174,7.506-8.254,14.791-12.287,22.103c-23.633,42.853-47.244,85.717-70.885,128.565c-13.341,24.182-26.729,48.338-40.068,72.521
	c-0.702,1.272-1.374,2.032-3.063,2.029c-30.956-0.064-61.912-0.047-92.869-0.053c-0.476-0.002-0.953-0.079-1.429-0.121
	c0-0.16,0-0.32,0-0.48c0.492-0.813,1.019-1.611,1.472-2.447c10.409-19.139,20.81-38.281,31.211-57.424
	c60.06-110.511,120.121-221.02,180.17-331.536c2.545-4.686,4.969-9.438,7.449-14.159
	C847.632,156.066,847.792,156.066,847.952,156.066z"/>
<path fill="#FFFFFF" d="M1428.225,156.066c0.765,0.117,1.526,0.333,2.291,0.338c10.231,0.066,20.465,0.104,30.695,0.155
	c0.704,0.003,1.408,0.062,2.248,0.102c0,49.007,0,97.9,0,147.029c-0.539-0.291-1.023-0.478-1.425-0.778
	c-31.72-23.892-63.425-47.8-95.168-71.661c-1.284-0.966-1.493-2.042-1.491-3.47c0.027-22.946,0.021-45.894,0.018-68.839
	c0-0.959-0.027-1.917-0.043-2.876C1386.309,156.066,1407.266,156.066,1428.225,156.066z"/>
<path fill="#FFFFFF" d="M1463.732,563.212c-8.313-6.519-16.174-12.674-24.024-18.839c-34.199-26.855-68.39-53.725-102.599-80.569
	c-51.625-40.513-103.243-81.035-154.902-121.506c-30.202-23.661-60.475-47.234-90.729-70.828c-1.26-0.98-2.021-1.938-2.019-3.728
	c0.063-35.511,0.047-71.022,0.052-106.534c0-0.694,0.061-1.389,0.112-2.56c2.316,1.62,4.318,2.993,6.292,4.405
	c58.947,42.167,117.895,84.335,176.836,126.511c63.037,45.105,126.067,90.218,189.11,135.315c1.147,0.821,1.915,1.589,1.913,3.231
	c-0.057,44.389-0.044,88.777-0.044,133.167C1463.732,561.738,1463.732,562.199,1463.732,563.212z"/>
<path fill="#FFFFFF" d="M1090.061,394.622c5.104,4.104,10.004,8.037,14.894,11.981c27.124,21.891,54.239,43.788,81.383,65.655
	c1.317,1.062,2.085,2.078,2.085,3.941c0.001,28.069,0.096,56.14,0.166,84.209c0.003,0.939,0.001,1.882,0.001,2.955
	c-32.965,0-65.646,0-98.526,0C1090.061,507.261,1090.061,451.118,1090.061,394.622z"/>
<g display="none">
	<path display="inline" d="M329.948,378.321c0.653-0.031,1.307-0.091,1.961-0.091c23.45-0.004,46.901-0.052,70.353,0.012
		c17.469,0.047,34.721,1.919,51.528,6.901c12.742,3.776,24.021,10.083,33.187,19.855c7.058,7.523,10.843,16.607,12.191,26.703
		c1.391,10.402,0.975,20.724-2.885,30.636c-5.321,13.661-14.867,23.361-28.117,29.519c-0.653,0.304-1.119,1.012-1.672,1.53
		c0.577,0.554,1.058,1.329,1.745,1.629c18.312,8.015,31.128,21.253,36.422,40.607c5.456,19.946,3.326,39.161-9.179,56.338
		c-8.979,12.336-21.446,19.721-35.838,24.123c-11.466,3.509-23.239,5.183-35.19,5.461c-10.972,0.255-21.95,0.234-32.925,0.258
		c-20.527,0.045-41.054,0.032-61.581,0.043C329.948,540.671,329.948,459.496,329.948,378.321z M391.564,522.637
		c0,17.553,0,34.891,0,52.308c0.459,0.034,0.806,0.085,1.154,0.085c6.268,0.004,12.533,0.036,18.799-0.008
		c5.445-0.038,10.826-0.677,16.049-2.256c8.26-2.496,14.763-7.034,17.184-15.819c1.568-5.688,1.28-11.447-0.152-17.147
		c-1.57-6.253-5.27-10.695-11.264-13.195c-4.883-2.035-9.98-3.348-15.23-3.568c-8.457-0.355-16.932-0.344-25.398-0.482
		C392.359,522.545,392.014,522.602,391.564,522.637z M391.581,424.845c0,17.085,0,33.94,0,51.271
		c8.655-0.369,17.209-0.273,25.646-1.229c7.849-0.889,14.33-4.827,18.193-12.083c2.714-5.098,3.26-10.646,2.718-16.331
		c-0.694-7.307-3.905-13.032-10.491-16.624c-5.811-3.169-12.071-4.766-18.641-4.967
		C403.236,424.706,397.457,424.845,391.581,424.845z"/>
	<path display="inline" d="M1670.052,509.754c-0.348,2.645-0.694,5.291-1.043,7.938c-2.276,17.318-8.101,33.388-17.373,48.154
		c-19.601,31.214-47.536,51.031-83.64,57.872c-42.977,8.143-81.271-2.718-113.488-32.604
		c-19.843-18.408-32.361-41.269-37.137-67.989c-8.748-48.949,10.303-96.875,51.676-126.128
		c17.043-12.05,35.961-19.395,56.643-22.147c3.715-0.495,7.479-0.626,11.221-0.939c0.218-0.018,0.425-0.16,0.637-0.244
		c3.462,0,6.924,0,10.386,0c0.396,0.087,0.787,0.211,1.188,0.258c6.554,0.785,13.217,1.05,19.645,2.423
		c34.941,7.461,62.303,26.202,81.807,56.162c9.947,15.277,16.072,32.049,18.455,50.153c0.342,2.584,0.686,5.169,1.026,7.753
		C1670.052,496.861,1670.052,503.308,1670.052,509.754z M1541.455,574.626c7.68-0.022,13.988-0.834,20.115-2.752
		c17.61-5.512,30.966-16.552,40.727-31.997c10.105-15.993,14.018-33.449,10.684-52.146c-3.491-19.579-13.293-35.625-29.086-47.707
		c-17.557-13.428-37.322-17.695-58.691-11.815c-18.711,5.147-32.797,16.802-42.79,33.349c-9.337,15.457-12.925,32.187-10.005,50.063
		c2.58,15.797,9.789,29.445,20.783,40.977C1506.627,566.689,1523.044,574.396,1541.455,574.626z"/>
	<path display="inline" d="M1335.563,373.666c2.646,0.343,5.293,0.677,7.938,1.03c16.877,2.253,32.33,8.272,46.516,17.627
		c7.899,5.21,16.59,12.561,21.125,17.83c-12.199,12.626-24.408,25.262-36.479,37.756c-3.349-3.099-6.401-6.317-9.849-9.037
		c-11.59-9.15-24.799-13.846-39.635-13.248c-13.958,0.563-26.199,5.775-36.783,14.769c-15.282,12.987-24.31,29.6-26.85,49.398
		c-3.113,24.25,4.189,45.462,20.557,63.483c8.764,9.649,19.406,16.604,32.264,19.444c20.275,4.479,38.063-0.853,53.514-14.472
		c2.455-2.166,4.793-4.464,7.313-6.82c11.924,12.341,24.097,24.939,36.602,37.882c-4.855,4.238-9.435,8.598-14.384,12.485
		c-14.635,11.498-31.107,19.047-49.482,22.319c-11.108,1.978-22.268,2.305-33.474,1.021c-27.192-3.114-50.122-15.023-69.237-34.28
		c-18.259-18.391-29.716-40.524-34.279-66.062c-4.804-26.881-2.5-53.129,8.664-78.193c13.396-30.077,35.119-52,65.625-64.846
		c10.438-4.396,21.385-6.906,32.698-7.745c0.515-0.038,1.017-0.226,1.522-0.344C1324.818,373.666,1330.191,373.666,1335.563,373.666
		z"/>
	<path display="inline" d="M821.848,486.256c-3.466,6.225-6.846,12.243-10.178,18.289c-13.079,23.731-26.133,47.479-39.215,71.207
		c-7.994,14.501-16.016,28.986-24.078,43.447c-0.329,0.592-1.199,1.252-1.818,1.255c-18.502,0.063-37.004,0.049-55.505,0.041
		c-0.173,0-0.345-0.068-0.793-0.165c43.853-80.695,87.657-161.305,131.607-242.184c43.877,80.845,87.632,161.464,131.539,242.362
		c-0.946,0-1.531,0-2.116,0c-17.845,0-35.689-0.014-53.534,0.028c-1.35,0.003-2.098-0.351-2.78-1.599
		c-7.43-13.592-14.947-27.131-22.422-40.697c-16.58-30.096-33.147-60.199-49.724-90.298
		C822.55,487.434,822.245,486.938,821.848,486.256z"/>
	<path display="inline" d="M582.999,568.552c32.217,0,64.12,0,96.245,0c-1.037,3.624-2.014,7.046-2.995,10.466
		c-3.824,13.322-7.668,26.637-11.449,39.971c-0.339,1.199-0.852,1.55-2.08,1.549c-44.704-0.032-89.409-0.027-134.114-0.027
		c-0.475,0-0.947,0-1.552,0c0-80.276,0-160.456,0-240.856c18.613,0,37.189,0,55.945,0
		C582.999,442.513,582.999,505.396,582.999,568.552z"/>
	<path display="inline" d="M1187.771,618.503c-3.015-2.397-5.799-4.603-8.568-6.826c-35.629-28.603-71.273-57.188-106.879-85.821
		c-31.932-25.679-63.823-51.409-95.708-77.146c-0.477-0.384-0.92-1.145-0.923-1.73c-0.035-22.796-0.019-45.591-0.006-68.388
		c0-0.058,0.029-0.115,0.116-0.429c0.568,0.406,1.073,0.754,1.564,1.121c35.267,26.327,70.589,52.583,105.784,79.006
		c34.625,25.995,69.125,52.156,103.646,78.288c0.586,0.444,1.068,1.44,1.071,2.182c0.054,26.021,0.045,52.038,0.04,78.059
		C1187.908,617.265,1187.837,617.715,1187.771,618.503z"/>
	<path display="inline" d="M1024.982,621.146c-19.631,0-39.127,0-58.764,0c0-33.466,0-66.856,0-100.551
		c0.543,0.383,1.001,0.672,1.42,1.01c18.807,15.166,37.614,30.33,56.391,45.534c0.509,0.412,0.961,1.246,0.963,1.886
		c0.061,17.067,0.059,34.138,0.064,51.207C1025.059,620.466,1025.021,620.699,1024.982,621.146z"/>
	<path display="inline" d="M1188.939,466.515c-4.81-3.616-9.379-7.047-13.939-10.487c-14.375-10.842-28.754-21.676-43.096-32.562
		c-0.66-0.501-1.381-1.461-1.383-2.21c-0.084-13.959-0.062-27.919-0.057-41.879c0-0.289,0.043-0.578,0.068-0.888
		c19.486,0,38.888,0,58.404,0C1188.939,407.886,1188.939,437.021,1188.939,466.515z"/>
</g>
</svg>
