<?xml version="1.0" encoding="utf-8"?>
<!-- Generator: Adobe Illustrator 16.0.0, SVG Export Plug-In . SVG Version: 6.00 Build 0)  -->
<!DOCTYPE svg PUBLIC "-//W3C//DTD SVG 1.1//EN" "http://www.w3.org/Graphics/SVG/1.1/DTD/svg11.dtd">
<svg version="1.1" id="Layer_1" xmlns="http://www.w3.org/2000/svg" xmlns:xlink="http://www.w3.org/1999/xlink" x="0px" y="0px"
	 width="2000px" height="1000px" viewBox="0 0 2000 1000" enable-background="new 0 0 2000 1000" xml:space="preserve">
<path display="none" fill-rule="evenodd" clip-rule="evenodd" d="M1024.577,895.205c-3.152-0.313-6.301-0.683-9.458-0.932
	c-75.704-5.951-144.143-31.277-204.792-77.111c-37.01-27.97-67.626-61.859-91.992-101.328
	c-17.458-28.277-0.737-65.219,31.976-71.033c18.763-3.334,37.933,5.148,48.076,21.438c11.844,19.021,25.624,36.507,41.624,52.176
	c37.604,36.831,82.1,61.373,133.139,74.102c28.565,7.124,57.586,9.833,86.963,8.464c41.921-1.953,81.81-11.99,119.344-30.881
	c46.857-23.581,84.351-57.576,112.575-101.804c9.309-14.588,22.787-22.174,39.987-22.463c23.654-0.397,43.76,17.437,46.824,40.942
	c1.448,11.115-0.714,21.48-6.638,30.963c-14.15,22.655-30.592,43.521-49.235,62.662c-29.604,30.393-63.405,55.039-101.318,74.047
	c-29.165,14.621-59.665,25.569-91.647,32.026c-14.762,2.979-29.742,4.915-44.655,7.105c-4.965,0.729-10.031,0.764-15.048,1.15
	c-1.009,0.078-2.005,0.313-3.007,0.476C1053.055,895.205,1038.816,895.205,1024.577,895.205z"/>
<path display="none" fill-rule="evenodd" clip-rule="evenodd" d="M847.952,156.066c30.228,55.704,60.452,111.409,90.684,167.11
	c29.243,53.879,58.494,107.753,87.739,161.63c13.632,25.115,27.258,50.233,40.885,75.352c0.295,0.546,0.563,1.107,0.994,1.961
	c-1.09,0.048-1.922,0.116-2.753,0.116c-30.316,0.005-60.633-0.013-90.949,0.045c-1.922,0.004-2.918-0.572-3.867-2.304
	c-12.612-23.04-25.329-46.021-38.01-69.023c-12.833-23.276-25.661-46.555-38.48-69.838c-15.131-27.481-30.25-54.97-45.379-82.452
	c-0.261-0.474-0.592-0.91-1.044-1.597c-4.174,7.506-8.255,14.791-12.288,22.103c-23.633,42.853-47.244,85.717-70.884,128.565
	c-13.341,24.182-26.729,48.338-40.069,72.522c-0.702,1.272-1.374,2.032-3.062,2.029c-30.956-0.064-61.912-0.047-92.869-0.053
	c-0.476-0.001-0.953-0.079-1.429-0.121c0-0.16,0-0.32,0-0.48c0.492-0.814,1.018-1.611,1.472-2.447
	c10.409-19.139,20.809-38.282,31.211-57.424c60.059-110.511,120.121-221.02,180.169-331.536c2.546-4.686,4.969-9.438,7.45-14.159
	C847.632,156.066,847.792,156.066,847.952,156.066z"/>
<path display="none" fill-rule="evenodd" clip-rule="evenodd" d="M1428.224,156.066c0.765,0.117,1.527,0.333,2.292,0.338
	c10.231,0.067,20.464,0.104,30.695,0.155c0.704,0.003,1.408,0.062,2.248,0.102c0,49.007,0,97.9,0,147.029
	c-0.539-0.291-1.024-0.478-1.425-0.778c-31.719-23.892-63.425-47.8-95.168-71.661c-1.284-0.966-1.493-2.042-1.491-3.47
	c0.027-22.946,0.021-45.893,0.018-68.839c0-0.959-0.028-1.917-0.043-2.876C1386.308,156.066,1407.266,156.066,1428.224,156.066z"/>
<path display="none" fill-rule="evenodd" clip-rule="evenodd" d="M1463.732,563.212c-8.313-6.519-16.173-12.674-24.024-18.839
	c-34.199-26.855-68.389-53.724-102.598-80.569c-51.625-40.513-103.244-81.035-154.903-121.506
	c-30.202-23.661-60.474-47.234-90.729-70.828c-1.259-0.981-2.021-1.939-2.018-3.728c0.064-35.511,0.047-71.022,0.052-106.534
	c0-0.694,0.06-1.389,0.112-2.56c2.316,1.62,4.318,2.993,6.292,4.405c58.947,42.167,117.894,84.335,176.836,126.511
	c63.037,45.105,126.067,90.218,189.11,135.315c1.148,0.821,1.915,1.589,1.913,3.231c-0.056,44.389-0.044,88.778-0.044,133.167
	C1463.732,561.738,1463.732,562.199,1463.732,563.212z"/>
<path display="none" fill-rule="evenodd" clip-rule="evenodd" d="M1090.061,394.622c5.104,4.105,10.003,8.037,14.893,11.982
	c27.124,21.89,54.24,43.788,81.383,65.655c1.317,1.061,2.085,2.078,2.085,3.941c0.001,28.069,0.095,56.14,0.166,84.209
	c0.003,0.94,0.001,1.882,0.001,2.955c-32.965,0-65.646,0-98.527,0C1090.061,507.261,1090.061,451.118,1090.061,394.622z"/>
<g>
	<path fill-rule="evenodd" clip-rule="evenodd" d="M329.948,378.321c0.654-0.031,1.307-0.091,1.961-0.091
		c23.451-0.004,46.902-0.052,70.353,0.012c17.469,0.047,34.72,1.919,51.528,6.901c12.742,3.776,24.021,10.083,33.187,19.855
		c7.057,7.523,10.842,16.608,12.191,26.703c1.391,10.403,0.975,20.724-2.885,30.636c-5.321,13.661-14.867,23.361-28.117,29.518
		c-0.653,0.304-1.119,1.012-1.672,1.531c0.577,0.554,1.058,1.329,1.745,1.629c18.312,8.014,31.128,21.252,36.422,40.607
		c5.456,19.946,3.326,39.161-9.178,56.338c-8.979,12.336-21.447,19.721-35.838,24.123c-11.466,3.509-23.24,5.183-35.191,5.461
		c-10.972,0.255-21.95,0.234-32.925,0.258c-20.527,0.045-41.053,0.032-61.581,0.043
		C329.948,540.671,329.948,459.496,329.948,378.321z M391.565,522.637c0,17.552,0,34.89,0,52.307
		c0.458,0.035,0.805,0.085,1.154,0.085c6.267,0.004,12.533,0.036,18.799-0.008c5.445-0.038,10.826-0.676,16.049-2.256
		c8.259-2.496,14.762-7.034,17.183-15.819c1.568-5.688,1.28-11.447-0.152-17.147c-1.571-6.253-5.27-10.695-11.264-13.195
		c-4.883-2.036-9.98-3.348-15.23-3.569c-8.458-0.355-16.932-0.344-25.399-0.482C392.36,522.545,392.014,522.601,391.565,522.637z
		 M391.581,424.845c0,17.085,0,33.94,0,51.27c8.655-0.369,17.209-0.273,25.645-1.229c7.849-0.889,14.331-4.827,18.194-12.083
		c2.714-5.098,3.26-10.647,2.718-16.331c-0.695-7.307-3.905-13.032-10.492-16.624c-5.81-3.169-12.071-4.766-18.64-4.967
		C403.236,424.706,397.457,424.845,391.581,424.845z"/>
	<path fill-rule="evenodd" clip-rule="evenodd" d="M1670.052,509.754c-0.348,2.645-0.694,5.291-1.043,7.937
		c-2.276,17.319-8.101,33.388-17.373,48.155c-19.601,31.214-47.536,51.031-83.64,57.872c-42.977,8.142-81.271-2.718-113.488-32.604
		c-19.843-18.408-32.362-41.268-37.137-67.989c-8.748-48.949,10.303-96.875,51.676-126.128
		c17.043-12.05,35.961-19.395,56.642-22.147c3.716-0.495,7.479-0.626,11.221-0.939c0.218-0.018,0.425-0.16,0.637-0.244
		c3.462,0,6.924,0,10.386,0c0.396,0.087,0.787,0.211,1.188,0.258c6.554,0.785,13.217,1.05,19.645,2.423
		c34.941,7.461,62.303,26.202,81.807,56.162c9.946,15.277,16.071,32.049,18.455,50.153c0.341,2.584,0.685,5.169,1.026,7.753
		C1670.052,496.861,1670.052,503.308,1670.052,509.754z M1541.455,574.626c7.68-0.023,13.989-0.834,20.115-2.752
		c17.611-5.512,30.966-16.552,40.727-31.997c10.106-15.993,14.017-33.449,10.683-52.146c-3.491-19.58-13.293-35.625-29.086-47.707
		c-17.556-13.428-37.322-17.696-58.691-11.816c-18.711,5.148-32.796,16.802-42.79,33.349c-9.337,15.457-12.924,32.186-10.004,50.062
		c2.58,15.797,9.788,29.445,20.782,40.977C1506.627,566.689,1523.044,574.396,1541.455,574.626z"/>
	<path fill-rule="evenodd" clip-rule="evenodd" d="M1335.563,373.666c2.646,0.343,5.292,0.677,7.937,1.03
		c16.877,2.253,32.33,8.273,46.515,17.627c7.9,5.21,16.591,12.561,21.125,17.83c-12.198,12.626-24.407,25.262-36.479,37.756
		c-3.349-3.098-6.401-6.317-9.848-9.037c-11.591-9.15-24.799-13.846-39.635-13.248c-13.958,0.563-26.199,5.775-36.783,14.769
		c-15.283,12.987-24.31,29.599-26.85,49.398c-3.113,24.25,4.189,45.462,20.556,63.483c8.764,9.65,19.407,16.604,32.264,19.445
		c20.275,4.479,38.062-0.853,53.514-14.472c2.455-2.166,4.793-4.464,7.313-6.82c11.924,12.341,24.097,24.939,36.602,37.882
		c-4.856,4.238-9.435,8.597-14.384,12.485c-14.635,11.498-31.108,19.047-49.483,22.319c-11.108,1.978-22.267,2.305-33.473,1.021
		c-27.192-3.114-50.122-15.024-69.237-34.28c-18.259-18.391-29.716-40.525-34.279-66.062c-4.804-26.881-2.501-53.129,8.663-78.193
		c13.396-30.077,35.12-52.001,65.625-64.846c10.438-4.396,21.386-6.906,32.699-7.745c0.514-0.038,1.016-0.226,1.523-0.344
		C1324.819,373.666,1330.191,373.666,1335.563,373.666z"/>
	<path fill-rule="evenodd" clip-rule="evenodd" d="M821.848,486.256c-3.466,6.225-6.846,12.243-10.178,18.289
		c-13.079,23.731-26.133,47.478-39.215,71.207c-7.994,14.501-16.016,28.986-24.078,43.447c-0.329,0.592-1.199,1.252-1.819,1.255
		c-18.501,0.063-37.003,0.049-55.504,0.041c-0.173,0-0.345-0.068-0.793-0.165c43.852-80.695,87.657-161.305,131.607-242.184
		c43.877,80.845,87.632,161.464,131.539,242.362c-0.946,0-1.531,0-2.116,0c-17.845,0-35.689-0.014-53.534,0.028
		c-1.35,0.003-2.098-0.35-2.781-1.599c-7.429-13.591-14.947-27.131-22.421-40.697c-16.58-30.096-33.148-60.199-49.724-90.298
		C822.55,487.434,822.245,486.938,821.848,486.256z"/>
	<path fill-rule="evenodd" clip-rule="evenodd" d="M582.999,568.552c32.217,0,64.12,0,96.245,0
		c-1.037,3.624-2.013,7.046-2.995,10.466c-3.824,13.322-7.668,26.636-11.449,39.97c-0.339,1.199-0.852,1.55-2.08,1.549
		c-44.705-0.032-89.41-0.027-134.114-0.027c-0.475,0-0.948,0-1.552,0c0-80.277,0-160.456,0-240.857c18.613,0,37.189,0,55.945,0
		C582.999,442.513,582.999,505.396,582.999,568.552z"/>
	<path fill-rule="evenodd" clip-rule="evenodd" d="M1187.771,618.503c-3.014-2.398-5.799-4.603-8.568-6.826
		c-35.629-28.603-71.273-57.188-106.879-85.821c-31.932-25.679-63.823-51.41-95.708-77.147c-0.476-0.384-0.92-1.145-0.922-1.73
		c-0.036-22.796-0.019-45.591-0.007-68.388c0-0.058,0.03-0.115,0.117-0.429c0.568,0.406,1.073,0.754,1.564,1.121
		c35.267,26.327,70.589,52.583,105.785,79.006c34.625,25.995,69.124,52.156,103.646,78.288c0.586,0.444,1.068,1.441,1.071,2.182
		c0.054,26.02,0.045,52.038,0.04,78.058C1187.908,617.265,1187.837,617.715,1187.771,618.503z"/>
	<path fill-rule="evenodd" clip-rule="evenodd" d="M1024.983,621.146c-19.631,0-39.127,0-58.764,0c0-33.465,0-66.856,0-100.55
		c0.543,0.383,1.001,0.672,1.419,1.01c18.807,15.165,37.615,30.33,56.391,45.534c0.509,0.412,0.961,1.246,0.963,1.885
		c0.061,17.068,0.059,34.138,0.064,51.207C1025.058,620.466,1025.021,620.699,1024.983,621.146z"/>
	<path fill-rule="evenodd" clip-rule="evenodd" d="M1188.939,466.515c-4.809-3.617-9.378-7.047-13.939-10.488
		c-14.375-10.841-28.754-21.676-43.096-32.561c-0.66-0.501-1.38-1.461-1.383-2.21c-0.083-13.959-0.061-27.919-0.056-41.879
		c0-0.289,0.043-0.578,0.068-0.888c19.487,0,38.888,0,58.405,0C1188.939,407.886,1188.939,437.022,1188.939,466.515z"/>
</g>
</svg>
