<?xml version="1.0" encoding="utf-8"?>
<!-- Generator: Adobe Illustrator 16.0.0, SVG Export Plug-In . SVG Version: 6.00 Build 0)  -->
<!DOCTYPE svg PUBLIC "-//W3C//DTD SVG 1.1//EN" "http://www.w3.org/Graphics/SVG/1.1/DTD/svg11.dtd">
<svg version="1.1" id="Layer_1" xmlns="http://www.w3.org/2000/svg" xmlns:xlink="http://www.w3.org/1999/xlink" x="0px" y="0px"
	 width="2000px" height="1000px" viewBox="0 0 2000 1000" enable-background="new 0 0 2000 1000" xml:space="preserve">
<path fill-rule="evenodd" clip-rule="evenodd" d="M1024.577,895.205c-3.152-0.313-6.301-0.683-9.458-0.932
	c-75.704-5.951-144.143-31.277-204.792-77.111c-37.01-27.97-67.626-61.859-91.992-101.328
	c-17.458-28.277-0.737-65.219,31.976-71.033c18.763-3.334,37.933,5.148,48.076,21.438c11.844,19.021,25.624,36.507,41.624,52.176
	c37.604,36.831,82.1,61.373,133.139,74.102c28.565,7.124,57.586,9.833,86.963,8.464c41.921-1.953,81.81-11.99,119.344-30.881
	c46.857-23.581,84.351-57.576,112.575-101.804c9.309-14.588,22.787-22.174,39.987-22.463c23.654-0.397,43.76,17.437,46.824,40.942
	c1.448,11.115-0.714,21.48-6.638,30.963c-14.15,22.655-30.592,43.521-49.235,62.662c-29.604,30.393-63.405,55.039-101.318,74.047
	c-29.165,14.621-59.665,25.569-91.647,32.026c-14.762,2.979-29.742,4.915-44.655,7.105c-4.965,0.729-10.031,0.764-15.048,1.15
	c-1.009,0.078-2.005,0.313-3.007,0.476C1053.055,895.205,1038.816,895.205,1024.577,895.205z"/>
<path fill-rule="evenodd" clip-rule="evenodd" d="M847.952,156.066c30.228,55.704,60.452,111.409,90.684,167.11
	c29.243,53.879,58.494,107.753,87.739,161.63c13.632,25.115,27.258,50.233,40.885,75.352c0.295,0.546,0.563,1.107,0.994,1.961
	c-1.09,0.048-1.922,0.116-2.753,0.116c-30.316,0.005-60.633-0.013-90.949,0.045c-1.922,0.004-2.918-0.572-3.867-2.304
	c-12.612-23.04-25.329-46.021-38.01-69.023c-12.833-23.276-25.661-46.555-38.48-69.838c-15.131-27.481-30.25-54.97-45.379-82.452
	c-0.261-0.474-0.592-0.91-1.044-1.597c-4.174,7.506-8.255,14.791-12.288,22.103c-23.633,42.853-47.244,85.717-70.884,128.565
	c-13.341,24.182-26.729,48.338-40.069,72.522c-0.702,1.272-1.374,2.032-3.062,2.029c-30.956-0.064-61.912-0.047-92.869-0.053
	c-0.476-0.001-0.953-0.079-1.429-0.121c0-0.16,0-0.32,0-0.48c0.492-0.814,1.018-1.611,1.472-2.447
	c10.409-19.139,20.809-38.282,31.211-57.424c60.059-110.511,120.121-221.02,180.169-331.536c2.546-4.686,4.969-9.438,7.45-14.159
	C847.632,156.066,847.792,156.066,847.952,156.066z"/>
<path fill-rule="evenodd" clip-rule="evenodd" d="M1428.224,156.066c0.765,0.117,1.527,0.333,2.292,0.338
	c10.231,0.067,20.464,0.104,30.695,0.155c0.704,0.003,1.408,0.062,2.248,0.102c0,49.007,0,97.9,0,147.029
	c-0.539-0.291-1.024-0.478-1.425-0.778c-31.719-23.892-63.425-47.8-95.168-71.661c-1.284-0.966-1.493-2.042-1.491-3.47
	c0.027-22.946,0.021-45.893,0.018-68.839c0-0.959-0.028-1.917-0.043-2.876C1386.308,156.066,1407.266,156.066,1428.224,156.066z"/>
<path fill-rule="evenodd" clip-rule="evenodd" d="M1463.732,563.212c-8.313-6.519-16.173-12.674-24.024-18.839
	c-34.199-26.855-68.389-53.724-102.598-80.569c-51.625-40.513-103.244-81.035-154.903-121.506
	c-30.202-23.661-60.474-47.234-90.729-70.828c-1.259-0.981-2.021-1.939-2.018-3.728c0.064-35.511,0.047-71.022,0.052-106.534
	c0-0.694,0.06-1.389,0.112-2.56c2.316,1.62,4.318,2.993,6.292,4.405c58.947,42.167,117.894,84.335,176.836,126.511
	c63.037,45.105,126.067,90.218,189.11,135.315c1.148,0.821,1.915,1.589,1.913,3.231c-0.056,44.389-0.044,88.778-0.044,133.167
	C1463.732,561.738,1463.732,562.199,1463.732,563.212z"/>
<path fill-rule="evenodd" clip-rule="evenodd" d="M1090.061,394.622c5.104,4.105,10.003,8.037,14.893,11.982
	c27.124,21.89,54.24,43.788,81.383,65.655c1.317,1.061,2.085,2.078,2.085,3.941c0.001,28.069,0.095,56.14,0.166,84.209
	c0.003,0.94,0.001,1.882,0.001,2.955c-32.965,0-65.646,0-98.527,0C1090.061,507.261,1090.061,451.118,1090.061,394.622z"/>
</svg>
