<?xml version="1.0" encoding="iso-8859-1"?>
<!-- Generator: Adobe Illustrator 19.0.0, SVG Export Plug-In . SVG Version: 6.00 Build 0)  -->
<svg version="1.1" id="Capa_1" xmlns="http://www.w3.org/2000/svg" xmlns:xlink="http://www.w3.org/1999/xlink" x="0px" y="0px"
	 viewBox="0 0 512.001 512.001" style="enable-background:new 0 0 512.001 512.001;" xml:space="preserve">
	 <style type="text/css">
	.st0{fill:#FF0000;}
	</style>
<g>
	<g>
		<path d="M304.783,476.686l-25.764-75.765v92.229c0,6.474-1.714,12.545-4.7,17.797c4.874,1.046,9.598,0.682,13.99-0.811
			C302.095,505.447,309.471,490.472,304.783,476.686z"/>
	</g>
</g>
<g>
	<g>
		<path  d="M498.745,270.599H389.747c4.496-1.613,7.721-5.9,7.725-10.95l0.078-88.853L443.906,65.38
			c1.032-2.345-0.026-5.085-2.366-6.128L416.057,47.89c-2.355-1.05-5.122,0.016-6.159,2.378l-70.468,160.245
			c-1.032,2.346,0.026,5.085,2.366,6.128l25.483,11.362c2.357,1.051,5.121-0.017,6.159-2.378l0.756-1.719l-0.021,24.077h-54.811
			c-6.437,0-11.655,5.218-11.655,11.655c0,5.056,3.225,9.347,7.725,10.961h-48.503c7.112-4.226,11.438-12.247,10.672-20.847
			c-1.077-12.088-11.767-21.014-23.832-19.936l-77.264,6.877l-34.933-38.03c3.798,2.409,30.348,19.257,33.439,21.217l66.406-5.911
			l10.465-4.66c11.085-4.936,16.07-17.923,11.133-29.008c-4.936-11.085-17.927-16.07-29.007-11.133l-54.071,24.077l-5.751-2.903
			c-2.535-14.68-14.9-26.221-30.412-27.105l-31.375-1.786c-15.378-0.876-30.423,4.709-41.505,15.407
			c-11.082,10.698-17.194,25.536-16.861,40.935l1.569,72.667L39.811,165.753c-1.262-9.963-10.351-17.02-20.328-15.757
			c-9.964,1.262-17.019,10.363-15.758,20.327l25.57,201.9c1.151,9.088,8.882,15.901,18.043,15.901h53.925v77.607H82.763
			c-3.216,0-6.299,1.278-8.573,3.551L52.17,491.303c-4.735,4.735-4.735,12.412,0,17.147c4.734,4.735,12.412,4.735,17.146,0
			l18.47-18.469h49.624l18.47,18.469c4.733,4.734,12.412,4.735,17.146,0c4.735-4.735,4.735-12.412,0-17.147l-22.021-22.021
			c-2.274-2.274-5.357-3.551-8.573-3.551H125.51v-77.607h54.108c11,0,19.732-9.783,17.939-21.06l9.314,2.404v-30.103h-1.94
			c-13.293,0-24.106-10.815-24.106-24.106c0-6.786,0-11.095,0-17.889c-16.002,1.424-2.858,0.255-18.023,1.604
			c-10.268,0.914-19.636-4.73-23.993-13.417l-27.178-54.535l39.847,43.379c4.18,4.55,10.058,7.108,16.178,7.108
			c1.297,0-0.479,0.13,27.673-2.376c-0.119,1.011-0.073-1.438-0.073,36.126c0,5.345,4.333,9.677,9.677,9.677
			c6.833,0,11.565,0,18.323,0V492.14c0,10.875,8.817,19.691,19.691,19.691c10.874,0,19.691-8.816,19.691-19.691V324.935h16.384
			h162.021v167.204c0,10.875,8.817,19.691,19.691,19.691s19.691-8.816,19.691-19.691V324.935h18.323
			c5.344,0,9.677-4.332,9.677-9.677v-34.983C508.421,274.931,504.089,270.599,498.745,270.599z"/>
	</g>
</g>
<g>
	<g>
		<path class="st0"  d="M145.125,51.506C118.41,49.61,95.216,69.73,93.32,96.444c-1.724,24.295,14.759,45.671,37.849,50.774
			c-2.943-3.173-4.719-7.366-4.809-11.829l-0.318-15.817c-5.676-4.686-9.3-11.774-9.3-19.693c0-14.077,11.453-25.53,25.53-25.53
			s25.53,11.453,25.53,25.53c0,7.523-3.273,14.294-8.467,18.971l0.122,6.096l17.779,7.908c7.262-7.819,12.012-18.068,12.827-29.542
			C191.959,76.597,171.84,53.403,145.125,51.506z"/>
	</g>
</g>
<g>
	<g>
		<path d="M175.979,144.442l-27.478-12.22c-0.214-10.697-0.166-8.282-0.384-19.157c5.065-2.25,8.585-7.304,8.585-13.186
			c0-7.969-6.46-14.43-14.43-14.43s-14.43,6.461-14.43,14.43c0,5.897,3.627,11.256,9.177,13.429l0.439,21.858
			c0.049,2.427,1.501,4.96,4.045,6.091l29.966,13.326c0.004,0.002,0.009,0.003,0.013,0.005
			C178.345,157.621,182.545,147.361,175.979,144.442z"/>
	</g>
</g>
<g>
	<g>
		<path  class="st0" d="M286.837,38.831c-3.038,0-4.829,1.682-4.829,5.426v14.379c0,3.743,1.79,5.425,4.829,5.425
			c3.038,0,4.883-1.682,4.883-5.426V44.257C291.72,40.513,289.875,38.831,286.837,38.831z"/>
	</g>
</g>
<g>
	<g>
		<path class="st0" d="M360.016,99.793l-12.133-18.24c8.171-8.356,12.948-18.439,12.948-29.297C360.831,23.395,327.103,0,285.5,0
			c-41.605,0-75.332,23.395-75.332,52.255s33.727,52.255,75.332,52.255c14.63,0,28.276-2.902,39.834-7.909l28.982,10.46
			C358.711,108.648,362.607,103.688,360.016,99.793z M268.989,62.76h-2.333v5.751c0,1.736-2.116,2.604-4.232,2.604
			c-2.117,0-4.232-0.868-4.232-2.604V62.76h-12.695c-1.574,0-2.822-1.031-2.822-2.93c-0.001-0.436,0.107-1.033,0.434-1.629
			l12.534-24.579c0.813-1.573,2.17-2.17,3.527-2.17c1.464,0,4.232,1.248,4.232,3.202c0,0.326-0.109,0.651-0.272,1.031l-9.603,19.262
			h4.666v-3.798c0-1.79,2.117-2.55,4.232-2.55c2.117,0,4.232,0.759,4.232,2.55v3.798h2.333c1.736,0,2.604,1.953,2.604,3.907
			S270.292,62.76,268.989,62.76z M300.184,58.636c0,9.333-5.86,12.805-13.347,12.805c-7.488,0-13.293-3.472-13.293-12.805V44.257
			c0-9.332,5.805-12.805,13.293-12.805s13.347,3.472,13.347,12.805V58.636z M328.341,62.76h-2.333v5.751
			c0,1.736-2.116,2.604-4.232,2.604c-2.117,0-4.232-0.868-4.232-2.604V62.76h-12.695c-1.574,0-2.822-1.031-2.822-2.93
			c0-0.436,0.109-1.033,0.435-1.629l12.534-24.579c0.813-1.573,2.17-2.17,3.527-2.17c1.464,0,4.231,1.248,4.231,3.202
			c0,0.326-0.109,0.651-0.272,1.031l-9.604,19.262h4.666v-3.798c0-1.79,2.117-2.55,4.232-2.55c2.117,0,4.232,0.759,4.232,2.55v3.798
			h2.333c1.736,0,2.604,1.953,2.604,3.907S329.643,62.76,328.341,62.76z"/>
	</g>
</g>
<g>
</g>
<g>
</g>
<g>
</g>
<g>
</g>
<g>
</g>
<g>
</g>
<g>
</g>
<g>
</g>
<g>
</g>
<g>
</g>
<g>
</g>
<g>
</g>
<g>
</g>
<g>
</g>
<g>
</g>
</svg>
